<svg width="1280" height="640" viewBox="0 0 1280 640" fill="none" xmlns="http://www.w3.org/2000/svg">
<path d="M950.308 526.179C934.186 527.184 921.529 523.63 912.339 515.518C903.149 507.405 898.039 495.091 897.01 478.575L877.388 163.592C876.384 147.469 880.306 134.395 889.156 124.369C898.374 113.926 911.242 108.19 927.758 107.161C944.667 106.107 958.343 110.19 968.787 119.408C979.205 128.234 984.917 140.708 985.922 156.83L1003.23 434.653L1138.9 426.201C1173.11 424.07 1191.13 437.751 1192.97 467.244C1193.9 482.187 1190.26 493.467 1182.05 501.084C1174.23 508.677 1161.67 513.012 1144.37 514.09L950.308 526.179Z" fill="#B094FF"/>
<path d="M889.156 124.369L866.665 104.516L866.665 104.516L889.156 124.369ZM968.787 119.408L948.933 141.9L949.163 142.102L949.396 142.3L968.787 119.408ZM1003.23 434.653L973.287 436.518L975.152 466.46L1005.09 464.595L1003.23 434.653ZM1182.05 501.084L1161.65 479.091L1161.39 479.325L1161.15 479.564L1182.05 501.084ZM948.443 496.237C937.643 496.91 933.703 494.36 932.192 493.026L892.486 538.009C909.355 552.9 930.728 557.457 952.174 556.121L948.443 496.237ZM932.192 493.026C930.817 491.812 927.665 488.143 926.952 476.71L867.068 480.44C868.414 502.039 875.481 522.998 892.486 538.009L932.192 493.026ZM926.952 476.71L907.33 161.726L847.446 165.457L867.068 480.44L926.952 476.71ZM907.33 161.726C906.71 151.781 909.127 147.077 911.647 144.222L866.665 104.516C851.485 121.712 846.057 143.157 847.446 165.457L907.33 161.726ZM911.647 144.222C914.625 140.849 919.446 137.737 929.623 137.103L925.892 77.2188C903.038 78.6426 882.124 87.0029 866.665 104.516L911.647 144.222ZM929.623 137.103C940.421 136.43 945.702 139.047 948.933 141.9L988.64 96.9173C970.985 81.3328 948.913 75.7847 925.892 77.2188L929.623 137.103ZM949.396 142.3C952.447 144.884 955.382 149.111 955.98 158.696L1015.86 154.965C1014.45 132.305 1005.96 111.584 988.177 96.5169L949.396 142.3ZM955.98 158.696L973.287 436.518L1033.17 432.788L1015.86 154.965L955.98 158.696ZM1005.09 464.595L1140.76 456.143L1137.03 396.259L1001.36 404.711L1005.09 464.595ZM1140.76 456.143C1154.25 455.303 1158.97 458.023 1159.94 458.76C1160.01 458.816 1162.47 460.233 1163.03 469.109L1222.91 465.378C1221.63 444.762 1214.16 424.591 1196.21 410.967C1179.16 398.023 1157.75 394.968 1137.03 396.259L1140.76 456.143ZM1163.03 469.109C1163.32 473.78 1162.8 476.435 1162.39 477.699C1162.05 478.747 1161.77 478.98 1161.65 479.091L1202.45 523.077C1219.31 507.436 1224.2 486.075 1222.91 465.378L1163.03 469.109ZM1161.15 479.564C1160.75 479.954 1156.65 483.267 1142.51 484.148L1146.24 544.032C1166.7 542.757 1187.72 537.4 1202.95 522.604L1161.15 479.564ZM1142.51 484.148L948.443 496.237L952.174 556.121L1146.24 544.032L1142.51 484.148Z" fill="#B094FF"/>
<path d="M950.371 525.177C934.248 526.182 921.591 522.628 912.401 514.516C903.211 506.403 898.101 494.089 897.073 477.573L877.45 162.59C876.446 146.467 880.368 133.393 889.218 123.367C898.437 112.924 911.304 107.188 927.82 106.159C944.729 105.105 958.405 109.188 968.849 118.406C979.268 127.232 984.979 139.706 985.984 155.829L1003.29 433.651L1138.96 425.199C1173.17 423.068 1191.19 436.749 1193.03 466.242C1193.96 481.185 1190.32 492.465 1182.11 500.082C1174.3 507.675 1161.74 512.01 1144.43 513.088L950.371 525.177Z" fill="#EDD7FF"/>
<path d="M495.312 505.602C479.399 502.826 467.917 496.424 460.868 486.395C453.818 476.367 451.681 463.396 454.457 447.482L508.789 136C511.565 120.086 517.967 108.605 527.996 101.555C538.025 94.5054 550.996 92.3686 566.909 95.1444L684.516 115.659C729.928 123.58 767.48 138.729 797.173 161.106C827.321 183.163 848.454 211.046 860.572 244.756C872.689 278.466 875.058 316.474 867.679 358.781C860.231 401.477 845.066 436.827 822.184 464.831C799.757 492.515 770.626 511.631 734.79 522.178C699.343 532.792 658.719 534.105 612.919 526.116L495.312 505.602ZM620.38 438.629C660.359 445.602 691.938 441.112 715.118 425.158C738.754 408.884 754.093 380.563 761.134 340.197C768.176 299.83 763.297 268.183 746.499 245.256C730.089 222.396 701.895 207.479 661.917 200.505L609.518 191.365L567.981 429.489L620.38 438.629Z" fill="#94E5FF"/>
<path d="M797.173 161.106L779.117 185.065L779.287 185.193L779.459 185.319L797.173 161.106ZM822.184 464.831L798.953 445.849L798.913 445.898L798.873 445.947L822.184 464.831ZM734.79 522.178L726.32 493.398L726.252 493.418L726.184 493.439L734.79 522.178ZM715.118 425.158L732.127 449.871L732.132 449.867L715.118 425.158ZM746.499 245.256L722.128 262.75L722.213 262.868L722.299 262.986L746.499 245.256ZM609.518 191.365L614.673 161.812L585.119 156.657L579.964 186.21L609.518 191.365ZM567.981 429.489L538.428 424.334L533.273 453.888L562.826 459.043L567.981 429.489ZM500.468 476.048C489.808 474.189 486.569 470.791 485.41 469.143L436.325 503.648C449.265 522.056 468.99 531.463 490.157 535.156L500.468 476.048ZM485.41 469.143C484.252 467.494 482.151 463.297 484.011 452.637L424.903 442.327C421.211 463.494 423.384 485.239 436.325 503.648L485.41 469.143ZM484.011 452.637L538.343 141.155L479.236 130.845L424.903 442.327L484.011 452.637ZM538.343 141.155C540.203 130.495 543.6 127.257 545.248 126.098L510.744 77.0121C492.335 89.9524 482.928 109.677 479.236 130.845L538.343 141.155ZM545.248 126.098C546.897 124.939 551.095 122.839 561.754 124.698L572.065 65.5907C550.897 61.8983 529.152 64.0719 510.744 77.0121L545.248 126.098ZM561.754 124.698L679.361 145.213L689.671 86.105L572.065 65.5907L561.754 124.698ZM679.361 145.213C721.192 152.509 754.023 166.153 779.117 185.065L815.228 137.148C780.937 111.305 738.664 94.651 689.671 86.105L679.361 145.213ZM779.459 185.319C804.996 204.002 822.337 227.077 832.34 254.904L888.803 234.608C874.571 195.016 849.646 162.325 814.887 136.894L779.459 185.319ZM832.34 254.904C842.377 282.824 844.788 315.428 838.125 353.626L897.232 363.937C905.329 317.52 903.002 274.108 888.803 234.608L832.34 254.904ZM838.125 353.626C831.387 392.252 817.985 422.557 798.953 445.849L845.414 483.813C872.147 451.097 889.075 410.701 897.232 363.937L838.125 353.626ZM798.873 445.947C780.467 468.667 756.619 484.481 726.32 493.398L743.261 550.957C784.632 538.781 819.046 516.363 845.494 483.715L798.873 445.947ZM726.184 493.439C696.195 502.419 660.434 503.951 618.074 496.562L607.764 555.67C657.004 564.259 702.491 563.166 743.396 550.917L726.184 493.439ZM618.074 496.562L500.468 476.048L490.157 535.156L607.764 555.67L618.074 496.562ZM615.225 468.183C659.518 475.909 700.09 471.921 732.127 449.871L698.11 400.446C683.786 410.304 661.2 415.296 625.535 409.075L615.225 468.183ZM732.132 449.867C764.809 427.367 782.861 390.224 790.688 345.352L731.581 335.042C725.325 370.902 712.7 390.4 698.105 400.449L732.132 449.867ZM790.688 345.352C798.506 300.532 794.115 259.485 770.699 227.525L722.299 262.986C732.48 276.881 737.845 299.129 731.581 335.042L790.688 345.352ZM770.87 227.761C748.19 196.167 711.364 178.678 667.072 170.952L656.762 230.059C692.426 236.28 711.988 248.625 722.128 262.75L770.87 227.761ZM667.072 170.952L614.673 161.812L604.363 220.919L656.762 230.059L667.072 170.952ZM579.964 186.21L538.428 424.334L597.535 434.644L639.072 196.521L579.964 186.21ZM562.826 459.043L615.225 468.183L625.535 409.075L573.137 399.935L562.826 459.043Z" fill="#94E5FF"/>
<path d="M494.312 505.602C478.399 502.826 466.917 496.424 459.868 486.395C452.818 476.367 450.681 463.396 453.457 447.482L507.789 136C510.565 120.086 516.967 108.605 526.996 101.555C537.025 94.5054 549.996 92.3686 565.909 95.1444L683.516 115.659C728.928 123.58 766.48 138.729 796.173 161.106C826.321 183.163 847.454 211.046 859.572 244.756C871.689 278.466 874.058 316.474 866.679 358.781C859.231 401.477 844.066 436.827 821.184 464.831C798.757 492.515 769.626 511.631 733.79 522.178C698.343 532.792 657.719 534.105 611.919 526.116L494.312 505.602ZM619.38 438.629C659.359 445.602 690.938 441.112 714.118 425.158C737.754 408.884 753.093 380.563 760.134 340.197C767.176 299.83 762.297 268.183 745.499 245.256C729.089 222.396 700.895 207.479 660.917 200.505L608.518 191.365L566.981 429.489L619.38 438.629Z" fill="#D7F8FF"/>
<path d="M477.854 417.186C488.866 426.169 494.901 437.14 495.96 450.099C497.019 463.058 493.041 474.847 484.026 485.466C475.011 496.086 463.827 501.941 450.476 503.032C435.946 504.219 422.081 499.027 408.881 487.455L226.952 329.173L238.31 468.186C239.658 484.679 235.824 498.235 226.809 508.854C217.762 519.081 204.795 524.884 187.91 526.264C171.416 527.612 157.876 523.974 147.289 515.352C137.062 506.304 131.275 493.534 129.927 477.041L104.179 161.906C102.863 145.806 106.533 132.659 115.188 122.464C124.203 111.844 136.957 105.861 153.45 104.513C170.336 103.134 184.088 106.951 194.708 115.967C205.295 124.589 211.246 136.95 212.562 153.051L223.15 282.639L375.049 102.417C384.393 90.9806 395.544 84.7327 408.503 83.6739C421.462 82.6151 433.251 86.5933 443.87 95.6084C454.458 104.231 460.281 115.022 461.339 127.98C462.398 140.939 457.683 153.381 447.193 165.307L336.114 293.57L477.854 417.186Z" fill="#FFB2B2"/>
<path d="M477.854 417.186L458.135 439.795L458.508 440.12L458.891 440.433L477.854 417.186ZM484.026 485.466L461.155 466.051L461.155 466.051L484.026 485.466ZM408.881 487.455L428.657 464.896L428.615 464.859L428.572 464.822L408.881 487.455ZM226.952 329.173L246.643 306.54L191.051 258.173L197.052 331.616L226.952 329.173ZM226.809 508.854L249.278 528.732L249.481 528.503L249.679 528.27L226.809 508.854ZM147.289 515.352L127.411 537.821L127.87 538.227L128.344 538.613L147.289 515.352ZM115.188 122.464L92.3173 103.049L92.3173 103.049L115.188 122.464ZM194.708 115.967L175.292 138.837L175.526 139.035L175.763 139.228L194.708 115.967ZM223.15 282.639L193.25 285.082L199.177 357.631L246.089 301.973L223.15 282.639ZM375.049 102.417L397.988 121.752L398.136 121.576L398.282 121.398L375.049 102.417ZM443.87 95.6084L424.455 118.479L424.688 118.677L424.926 118.87L443.87 95.6084ZM447.193 165.307L424.667 145.494L424.591 145.58L424.515 145.668L447.193 165.307ZM336.114 293.57L313.436 273.93L293.865 296.529L316.396 316.179L336.114 293.57ZM458.891 440.433C464.231 444.789 465.731 448.518 466.06 452.542L525.861 447.656C524.072 425.762 513.501 407.55 496.817 393.94L458.891 440.433ZM466.06 452.542C466.421 456.965 465.428 461.018 461.155 466.051L506.896 504.881C520.654 488.676 527.617 469.15 525.861 447.656L466.06 452.542ZM461.155 466.051C457.061 470.875 453.108 472.717 448.033 473.131L452.919 532.932C474.546 531.165 492.961 521.297 506.896 504.881L461.155 466.051ZM448.033 473.131C443.216 473.525 437.089 472.288 428.657 464.896L389.105 510.014C407.073 525.765 428.676 534.913 452.919 532.932L448.033 473.131ZM428.572 464.822L246.643 306.54L207.261 351.806L389.19 510.088L428.572 464.822ZM197.052 331.616L208.41 470.629L268.211 465.743L256.852 326.73L197.052 331.616ZM208.41 470.629C209.24 480.792 206.851 486.008 203.939 489.439L249.679 528.27C264.797 510.461 270.075 488.565 268.211 465.743L208.41 470.629ZM204.34 488.976C201.592 492.083 196.589 495.455 185.466 496.364L190.353 556.164C213.001 554.314 233.932 546.079 249.278 528.732L204.34 488.976ZM185.466 496.364C174.958 497.222 169.59 494.823 166.234 492.09L128.344 538.613C146.163 553.125 167.875 558.001 190.353 556.164L185.466 496.364ZM167.167 492.882C163.925 490.014 160.686 485.107 159.828 474.598L100.027 479.484C101.864 501.962 110.2 522.595 127.411 537.821L167.167 492.882ZM159.828 474.598L134.079 159.463L74.2786 164.349L100.027 479.484L159.828 474.598ZM134.079 159.463C133.268 149.532 135.593 144.782 138.058 141.879L92.3173 103.049C77.4725 120.535 72.4591 142.081 74.2786 164.349L134.079 159.463ZM138.058 141.879C140.97 138.449 145.73 135.244 155.893 134.414L151.007 74.613C128.184 76.4778 107.435 85.2404 92.3173 103.049L138.058 141.879ZM155.893 134.414C166.676 133.533 172.006 136.047 175.292 138.837L214.123 93.0963C196.17 77.8557 173.995 72.7347 151.007 74.613L155.893 134.414ZM175.763 139.228C178.862 141.752 181.879 145.922 182.661 155.494L242.462 150.608C240.613 127.979 231.727 107.426 213.652 92.705L175.763 139.228ZM182.661 155.494L193.25 285.082L253.05 280.196L242.462 150.608L182.661 155.494ZM246.089 301.973L397.988 121.752L352.11 83.0834L200.211 263.305L246.089 301.973ZM398.282 121.398C403.235 115.335 407.247 113.876 410.946 113.574L406.06 53.7736C383.841 55.589 365.551 66.6259 351.817 83.4371L398.282 121.398ZM410.946 113.574C415.369 113.213 419.422 114.206 424.455 118.479L463.285 72.7382C447.08 58.9805 427.554 52.0173 406.06 53.7736L410.946 113.574ZM424.926 118.87C429.535 122.624 431.082 126.053 431.439 130.423L491.24 125.537C489.479 103.99 479.38 85.8379 462.815 72.3468L424.926 118.87ZM431.439 130.423C431.693 133.529 431.056 138.23 424.667 145.494L469.719 185.121C484.31 168.533 493.104 148.349 491.24 125.537L431.439 130.423ZM424.515 145.668L313.436 273.93L358.792 313.21L469.871 184.947L424.515 145.668ZM316.396 316.179L458.135 439.795L497.572 394.577L355.833 270.961L316.396 316.179Z" fill="#FFB3B3"/>
<path d="M477.854 417.186C488.866 426.169 494.901 437.14 495.96 450.099C497.019 463.058 493.041 474.847 484.026 485.466C475.011 496.086 463.827 501.941 450.476 503.032C435.946 504.219 422.081 499.027 408.881 487.455L226.952 329.173L238.31 468.186C239.658 484.679 235.824 498.235 226.809 508.854C217.762 519.081 204.795 524.884 187.91 526.264C171.416 527.612 157.876 523.974 147.289 515.352C137.062 506.304 131.275 493.534 129.927 477.041L104.179 161.906C102.863 145.806 106.533 132.659 115.188 122.464C124.203 111.844 136.957 105.861 153.45 104.513C170.336 103.134 184.088 106.951 194.708 115.967C205.295 124.589 211.246 136.95 212.562 153.051L223.15 282.639L375.049 102.417C384.393 90.9806 395.544 84.7327 408.503 83.6739C421.462 82.6151 433.251 86.5933 443.87 95.6084C454.458 104.231 460.281 115.022 461.339 127.98C462.398 140.939 457.683 153.381 447.193 165.307L336.114 293.57L477.854 417.186Z" fill="#FFE5D7"/>
</svg>
