<?xml version="1.0" standalone="no"?>
<!DOCTYPE svg PUBLIC "-//W3C//DTD SVG 20010904//EN"
 "http://www.w3.org/TR/2001/REC-SVG-20010904/DTD/svg10.dtd">
<svg version="1.0" xmlns="http://www.w3.org/2000/svg"
 width="260.000000pt" height="260.000000pt" viewBox="0 0 260.000000 260.000000"
 preserveAspectRatio="xMidYMid meet">
<metadata>
Created by potrace 1.11, written by Peter Selinger 2001-2013
</metadata>
<g transform="translate(0.000000,260.000000) scale(0.100000,-0.100000)"
fill="#000000" stroke="none">
<path d="M1100 1797 c-19 -5 -41 -14 -48 -20 -20 -16 -42 -64 -52 -110 -7 -36
-8 -38 -9 -12 -1 40 -33 91 -73 116 -25 15 -45 19 -83 16 -55 -5 -65 -14 -218
-195 -42 -51 -77 -87 -77 -80 -3 62 -13 129 -26 158 -39 92 -170 111 -246 36
-40 -41 -43 -72 -23 -286 6 -71 11 -131 20 -255 9 -120 14 -162 21 -192 30
-118 218 -133 275 -22 17 34 19 52 14 124 -6 86 -4 95 19 73 24 -24 143 -128
200 -174 46 -39 66 -48 106 -52 35 -3 57 0 74 11 13 9 35 14 48 12 12 -3 48
-9 78 -15 30 -5 82 -14 115 -20 61 -11 170 -14 215 -5 69 13 87 19 115 34 53
29 107 74 136 114 l28 39 7 -43 c5 -28 18 -55 40 -78 l32 -36 94 1 c106 0 315
12 369 20 20 3 51 18 69 33 27 22 33 36 37 77 6 62 -14 107 -60 131 -32 16
-46 17 -241 10 l-49 -2 -2 45 c-2 25 -5 83 -9 130 -3 47 -8 134 -12 194 -3 60
-10 121 -16 135 -31 85 -144 119 -224 70 -40 -24 -64 -74 -64 -131 -1 -33 -3
-39 -10 -26 -18 29 -130 97 -194 117 -55 17 -140 34 -296 60 -25 4 -61 3 -80
-2z m-114 -209 c-3 -18 -8 -46 -10 -63 -7 -46 -38 -218 -41 -235 -2 -8 -4 -23
-4 -32 -1 -24 -11 -22 -47 10 -17 15 -48 42 -69 60 l-37 33 28 32 c16 17 31
34 35 37 30 28 139 166 139 177 0 7 3 13 6 13 3 0 4 -15 0 -32z m429 -112 c57
-37 72 -106 46 -203 -23 -83 -72 -114 -170 -107 -62 4 -74 10 -67 32 3 10 8
35 11 57 2 22 7 51 10 65 2 14 7 41 10 60 4 19 10 52 14 73 5 20 7 37 4 37 -3
0 0 6 6 14 10 12 19 12 62 1 28 -8 61 -21 74 -29z"/>
</g>
</svg>
